<svg width="24" height="24" viewBox="0 0 24 24" fill="none" xmlns="http://www.w3.org/2000/svg">
<g id="Bag_alt_light">
<path id="Vector 9" d="M8 12.002L8 8.00195C8 5.79282 9.79086 4.00195 12 4.00195V4.00195C14.2091 4.00195 16 5.79282 16 8.00195L16 12.002" stroke="#2E524A" stroke-linecap="round"/>
<path id="Rectangle 1" d="M3.69435 12.6698C3.83942 10.9289 3.91196 10.0584 4.48605 9.53019C5.06013 9.00195 5.9336 9.00195 7.68053 9.00195H16.3195C18.0664 9.00195 18.9399 9.00195 19.514 9.53019C20.088 10.0584 20.1606 10.9289 20.3057 12.6698L20.8195 18.8359C20.904 19.8494 20.9462 20.3562 20.6491 20.6791C20.352 21.002 19.8435 21.002 18.8264 21.002H5.1736C4.15655 21.002 3.64802 21.002 3.35092 20.6791C3.05382 20.3562 3.09605 19.8494 3.18051 18.8359L3.69435 12.6698Z" stroke="#2E524A"/>
</g>
</svg>
