<svg width="24" height="24" viewBox="0 0 24 24" fill="none" xmlns="http://www.w3.org/2000/svg">
<g id="Icon Frame">
<path id="Subtract" fill-rule="evenodd" clip-rule="evenodd" d="M14.2352 1.99901C13.0428 0.666996 10.9573 0.666997 9.76484 1.99901L9.63046 2.14912C9.42788 2.3754 9.13345 2.49736 8.8302 2.4806L8.62903 2.46947C6.84397 2.37079 5.36932 3.84543 5.46801 5.6305L5.47913 5.83166C5.4959 6.13491 5.37394 6.42935 5.14765 6.63192L4.99754 6.7663C3.66553 7.95875 3.66553 10.0442 4.99755 11.2367L5.14765 11.371C5.37394 11.5736 5.4959 11.8681 5.47913 12.1713L5.46801 12.3725C5.38121 13.9426 6.51171 15.2726 8.00002 15.5029V22.0015C8.00002 22.3703 8.203 22.7091 8.52816 22.8832C8.85332 23.0572 9.24786 23.0381 9.55472 22.8335L12 21.2033L14.4453 22.8335C14.7522 23.0381 15.1467 23.0572 15.4719 22.8832C15.797 22.7091 16 22.3703 16 22.0015V15.5029C17.4883 15.2726 18.6188 13.9426 18.532 12.3725L18.5209 12.1713C18.5041 11.8681 18.6261 11.5736 18.8524 11.371L19.0025 11.2367C20.3345 10.0442 20.3345 7.95875 19.0025 6.7663L18.8524 6.63192C18.6261 6.42935 18.5041 6.13491 18.5209 5.83166L18.532 5.6305C18.6307 3.84543 17.1561 2.37079 15.371 2.46947L15.1698 2.4806C14.8666 2.49736 14.5722 2.3754 14.3696 2.14912L14.2352 1.99901ZM14 16.2395C12.8656 17.2575 11.1345 17.2575 10 16.2395V20.133L11.4453 19.1694C11.7812 18.9455 12.2188 18.9455 12.5547 19.1694L14 20.133V16.2395ZM14.7071 8.70857C15.0976 8.31805 15.0976 7.68488 14.7071 7.29436C14.3166 6.90383 13.6834 6.90383 13.2929 7.29436L11 9.58725L10.7071 9.29436C10.3166 8.90383 9.68342 8.90383 9.29289 9.29436C8.90237 9.68488 8.90237 10.318 9.29289 10.7086L10.2929 11.7086C10.6834 12.0991 11.3166 12.0991 11.7071 11.7086L14.7071 8.70857Z" fill="#2E524A"/>
</g>
</svg>
