<svg width="15" height="10" viewBox="0 0 15 10" fill="none" xmlns="http://www.w3.org/2000/svg">
<g id="&#229;&#156;&#134;&#232;&#167;&#146;-&#230;&#152;&#142;&#230;&#150;&#135;">
<path id="Fill 1" fill-rule="evenodd" clip-rule="evenodd" d="M7.49869 0.5C2.99932 0.5 0.832031 4.86971 0.832031 5.08333C0.832031 5.29718 2.94144 9.66667 7.49869 9.66667C12.0559 9.66667 14.1652 5.29718 14.1652 5.08333C14.1652 4.86971 11.9979 0.5 7.49869 0.5ZM7.49869 7.58333C6.11796 7.58333 4.99866 6.46402 4.99866 5.0833C4.99866 3.70255 6.11796 2.58333 7.49869 2.58333C8.87931 2.58333 9.99861 3.70255 9.99861 5.0833C9.99861 6.46402 8.87931 7.58333 7.49869 7.58333ZM7.49869 3.83333C6.80822 3.83333 6.24865 4.39299 6.24865 5.08328C6.24865 5.77373 6.80822 6.33331 7.49869 6.33331C8.18896 6.33331 8.74862 5.77373 8.74862 5.08328C8.74862 4.39299 8.18896 3.83333 7.49869 3.83333Z" fill="#C4C4C4"/>
</g>
</svg>
